<mxfile host="app.diagrams.net" modified="2022-11-20T23:41:35.153Z" agent="5.0 (Macintosh; Intel Mac OS X 10_15_7) AppleWebKit/605.1.15 (KHTML, like Gecko) Version/16.1 Safari/605.1.15" etag="iJQNJtlwiKCeLsspbKAB" version="20.5.3" type="github">
  <diagram id="AzWSixzSeLenU5cYG7RJ" name="Seite-1">
    <mxGraphModel dx="1411" dy="825" grid="1" gridSize="10" guides="1" tooltips="1" connect="1" arrows="1" fold="1" page="1" pageScale="1" pageWidth="827" pageHeight="1169" math="0" shadow="0">
      <root>
        <mxCell id="0" />
        <mxCell id="1" parent="0" />
        <mxCell id="4vhAdvbKiPhtKXBXS9m7-29" value="" style="whiteSpace=wrap;html=1;aspect=fixed;fontSize=21;fillColor=#F5F5F5;fontColor=#333333;strokeColor=none;" parent="1" vertex="1">
          <mxGeometry x="59" y="60" width="710" height="710" as="geometry" />
        </mxCell>
        <mxCell id="4vhAdvbKiPhtKXBXS9m7-3" value="" style="edgeStyle=orthogonalEdgeStyle;orthogonalLoop=1;jettySize=auto;html=1;fontSize=21;curved=1;" parent="1" source="4vhAdvbKiPhtKXBXS9m7-1" target="4vhAdvbKiPhtKXBXS9m7-2" edge="1">
          <mxGeometry relative="1" as="geometry" />
        </mxCell>
        <mxCell id="4vhAdvbKiPhtKXBXS9m7-8" style="edgeStyle=orthogonalEdgeStyle;curved=1;orthogonalLoop=1;jettySize=auto;html=1;exitX=0.5;exitY=1;exitDx=0;exitDy=0;fontSize=21;" parent="1" source="4vhAdvbKiPhtKXBXS9m7-1" target="4vhAdvbKiPhtKXBXS9m7-4" edge="1">
          <mxGeometry relative="1" as="geometry" />
        </mxCell>
        <mxCell id="4vhAdvbKiPhtKXBXS9m7-1" value="Pricing Techniques" style="ellipse;whiteSpace=wrap;html=1;fontSize=21;fontStyle=1;fillColor=#D5E8D4;strokeColor=#82b366;gradientColor=none;" parent="1" vertex="1">
          <mxGeometry x="244" y="90" width="340" height="130" as="geometry" />
        </mxCell>
        <mxCell id="4vhAdvbKiPhtKXBXS9m7-12" style="edgeStyle=orthogonalEdgeStyle;curved=1;orthogonalLoop=1;jettySize=auto;html=1;fontSize=21;" parent="1" source="4vhAdvbKiPhtKXBXS9m7-2" target="4vhAdvbKiPhtKXBXS9m7-11" edge="1">
          <mxGeometry relative="1" as="geometry" />
        </mxCell>
        <mxCell id="4vhAdvbKiPhtKXBXS9m7-15" style="edgeStyle=orthogonalEdgeStyle;curved=1;orthogonalLoop=1;jettySize=auto;html=1;fontSize=21;" parent="1" source="4vhAdvbKiPhtKXBXS9m7-2" target="4vhAdvbKiPhtKXBXS9m7-14" edge="1">
          <mxGeometry relative="1" as="geometry" />
        </mxCell>
        <mxCell id="4vhAdvbKiPhtKXBXS9m7-2" value="Herding Behavior" style="whiteSpace=wrap;html=1;fontSize=21;fillColor=#ffe6cc;strokeColor=#d79b00;fontStyle=1;" parent="1" vertex="1">
          <mxGeometry x="80" y="280" width="190" height="100" as="geometry" />
        </mxCell>
        <mxCell id="4vhAdvbKiPhtKXBXS9m7-13" style="edgeStyle=orthogonalEdgeStyle;curved=1;orthogonalLoop=1;jettySize=auto;html=1;entryX=1;entryY=0.5;entryDx=0;entryDy=0;fontSize=21;" parent="1" source="4vhAdvbKiPhtKXBXS9m7-4" target="4vhAdvbKiPhtKXBXS9m7-11" edge="1">
          <mxGeometry relative="1" as="geometry" />
        </mxCell>
        <mxCell id="4vhAdvbKiPhtKXBXS9m7-4" value="Price Prediction" style="whiteSpace=wrap;html=1;fontSize=21;fillColor=#ffe6cc;strokeColor=#d79b00;fontStyle=1;" parent="1" vertex="1">
          <mxGeometry x="560" y="280" width="190" height="100" as="geometry" />
        </mxCell>
        <mxCell id="4vhAdvbKiPhtKXBXS9m7-20" style="edgeStyle=orthogonalEdgeStyle;curved=1;orthogonalLoop=1;jettySize=auto;html=1;entryX=0.5;entryY=0;entryDx=0;entryDy=0;fontSize=21;" parent="1" source="4vhAdvbKiPhtKXBXS9m7-11" target="4vhAdvbKiPhtKXBXS9m7-16" edge="1">
          <mxGeometry relative="1" as="geometry" />
        </mxCell>
        <mxCell id="4vhAdvbKiPhtKXBXS9m7-24" value="" style="edgeStyle=orthogonalEdgeStyle;curved=1;orthogonalLoop=1;jettySize=auto;html=1;fontSize=21;" parent="1" source="4vhAdvbKiPhtKXBXS9m7-11" target="4vhAdvbKiPhtKXBXS9m7-23" edge="1">
          <mxGeometry relative="1" as="geometry" />
        </mxCell>
        <mxCell id="4vhAdvbKiPhtKXBXS9m7-11" value="Bayesian Estimation" style="ellipse;whiteSpace=wrap;html=1;aspect=fixed;fontSize=21;fillColor=#dae8fc;strokeColor=#6c8ebf;fontStyle=1" parent="1" vertex="1">
          <mxGeometry x="344" y="380" width="140" height="140" as="geometry" />
        </mxCell>
        <mxCell id="4vhAdvbKiPhtKXBXS9m7-17" value="" style="edgeStyle=orthogonalEdgeStyle;curved=1;orthogonalLoop=1;jettySize=auto;html=1;fontSize=21;" parent="1" source="4vhAdvbKiPhtKXBXS9m7-14" target="4vhAdvbKiPhtKXBXS9m7-16" edge="1">
          <mxGeometry relative="1" as="geometry" />
        </mxCell>
        <mxCell id="4vhAdvbKiPhtKXBXS9m7-14" value="Sentiment &amp;nbsp;Anylsis" style="whiteSpace=wrap;html=1;fontSize=21;fillColor=#f8cecc;strokeColor=#b85450;fontStyle=1;" parent="1" vertex="1">
          <mxGeometry x="80" y="440" width="190" height="100" as="geometry" />
        </mxCell>
        <mxCell id="4vhAdvbKiPhtKXBXS9m7-16" value="Bayesian Multilayer Perceptron&amp;nbsp;" style="ellipse;whiteSpace=wrap;html=1;fontSize=21;fillColor=#e1d5e7;strokeColor=#9673a6;fontStyle=1;" parent="1" vertex="1">
          <mxGeometry x="140" y="620" width="220" height="120" as="geometry" />
        </mxCell>
        <mxCell id="4vhAdvbKiPhtKXBXS9m7-27" value="" style="edgeStyle=orthogonalEdgeStyle;curved=1;orthogonalLoop=1;jettySize=auto;html=1;fontSize=21;" parent="1" source="4vhAdvbKiPhtKXBXS9m7-23" target="4vhAdvbKiPhtKXBXS9m7-26" edge="1">
          <mxGeometry relative="1" as="geometry" />
        </mxCell>
        <mxCell id="4vhAdvbKiPhtKXBXS9m7-23" value="Parameter&amp;nbsp;&lt;br&gt;Estimation&amp;nbsp;" style="rhombus;whiteSpace=wrap;html=1;fontSize=21;fillColor=#fff2cc;strokeColor=#d6b656;fontStyle=1;" parent="1" vertex="1">
          <mxGeometry x="584" y="400" width="160" height="160" as="geometry" />
        </mxCell>
        <mxCell id="4vhAdvbKiPhtKXBXS9m7-26" value="Stochastic Bayesian Neural Network" style="ellipse;whiteSpace=wrap;html=1;fontSize=21;fillColor=#e1d5e7;strokeColor=#9673a6;fontStyle=1;" parent="1" vertex="1">
          <mxGeometry x="470" y="620" width="206" height="120" as="geometry" />
        </mxCell>
      </root>
    </mxGraphModel>
  </diagram>
</mxfile>
